# xmcd CD database file
#
# Track frame offsets:
#	150
#	10868
#	30190
#	41532
#	54956
#	69949
#	82720
#	92536
#	106517
#	118017
#	132430
#	143368
#	154528
#	168870
#
# Disc length: 2394 seconds
#
# Revision: 0
# Processed by: cddbd v1.5.2PL0 Copyright (c) Steve Scherf et al.
# Submitted via: CDex 1.51
#
DISCID=8d09580e
DTITLE=Richard Dobson - Back At The Red Shack
DYEAR=2006
DGENRE=Country
TTITLE0='63 Mercury
TTITLE1=Aunt Beyy's Lament
TTITLE2=Aye Chihuahau
TTITLE3=Baby Ride Easy
TTITLE4=Suited Me
TTITLE5=Living and Dying for Love
TTITLE6=There Ought To Be a Law
TTITLE7=Never Say Never
TTITLE8=Close Calls
TTITLE9=Over All Over Again
TTITLE10=Salty Kisses
TTITLE11=Hard By the Highway
TTITLE12=Walking My Blues Away
TTITLE13=Hard Work Talking Blues
EXTD=YEAR: 2006
EXTT0=
EXTT1=
EXTT2=
EXTT3=
EXTT4=
EXTT5=
EXTT6=
EXTT7=
EXTT8=
EXTT9=
EXTT10=
EXTT11=
EXTT12=
EXTT13=
PLAYORDER=
